<svg width="19" height="19" viewBox="0 0 19 19" fill="none" xmlns="http://www.w3.org/2000/svg">
<path d="M8.16349 10.7097C6.41571 9.61031 5.77006 8.25996 5.56765 7.70612C5.51147 7.55303 5.52972 7.38252 5.61703 7.24479L6.5068 5.83091C6.63769 5.62296 6.60765 5.35217 6.43437 5.17796L3.95148 2.74754C3.75972 2.55461 3.45269 2.53914 3.24251 2.71182L0.613766 4.76924C0.443461 4.90738 0.377052 5.13687 0.447272 5.34461C0.935379 6.77521 2.395 10.2328 6.7424 12.9676C11.0898 15.7023 14.8379 15.5205 16.3396 15.3408C16.5572 15.3142 16.7353 15.1549 16.7861 14.9416L17.5023 11.6812C17.5666 11.4176 17.4204 11.1482 17.1643 11.0584L13.8985 9.87335C13.6665 9.79244 13.4094 9.88241 13.2785 10.0903L12.3894 11.5046C12.303 11.6429 12.1572 11.7332 11.9949 11.7489C11.408 11.8062 9.91127 11.809 8.16349 10.7097Z" fill="#18A0FB"/>
</svg>
