<svg width="24" height="13" viewBox="0 0 24 13" fill="none" xmlns="http://www.w3.org/2000/svg">
<path d="M22.1506 11.9723C22.4406 11.7397 22.695 11.4668 22.9067 11.1619L23.0685 10.9289C24.0112 9.57165 24.0673 7.80762 23.2963 6.36987C22.8474 5.53276 22.2468 4.78422 21.527 4.16451C21.4986 4.14014 21.4701 4.11615 21.4412 4.09256C16.6419 0.0965626 9.70475 -0.475326 3.92893 2.64886C3.89432 2.66724 3.85986 2.68604 3.82555 2.70527C2.9537 3.19376 2.16357 3.82767 1.49767 4.57287C0.353967 5.85278 -0.0696639 7.58651 0.483839 9.06714L0.578858 9.32132C0.703163 9.65384 0.877845 9.96214 1.09822 10.2368C2.15748 11.5571 4.16946 11.5508 5.55729 10.4373L8.67038 7.93978C10.0582 6.82636 10.5006 4.86361 9.44139 3.5433C9.22102 3.26861 8.95792 3.03125 8.66026 2.8378L8.43273 2.68994C8.35504 2.63945 8.27577 2.59205 8.19507 2.54772C11.2804 1.79385 14.486 2.05811 17.2979 3.29812C17.2069 3.3283 17.1166 3.36172 17.0269 3.39841L16.7644 3.50588C16.4209 3.64647 16.0993 3.83564 15.8094 4.06825C14.4157 5.18636 14.3159 7.17735 15.3708 8.49213L17.7369 11.4414C18.7917 12.7562 20.757 13.0904 22.1506 11.9723Z" fill="white"/>
</svg>
