<svg width="19" height="19" viewBox="0 0 19 19" fill="none" xmlns="http://www.w3.org/2000/svg">
<g clip-path="url(#clip0_31_228)">
<path d="M15.558 13.7296H3.44183C3.25671 13.7296 3.08378 13.6381 2.97955 13.4852C1.38095 11.1409 1.25832 6.63141 1.24904 5.96199C1.24846 5.93575 1.24817 5.90923 1.24817 5.88284C1.24817 5.57423 1.49808 5.32388 1.80669 5.3233H1.80785C2.11589 5.3233 2.36623 5.57249 2.36739 5.88067C2.36739 5.88444 2.36754 5.91749 2.36884 5.97605C2.41813 7.56813 3.7287 8.84797 5.33252 8.84797C6.96751 8.84797 8.29765 7.51783 8.29765 5.88284C8.29765 5.57379 8.54828 5.3233 8.85719 5.3233H10.1425C10.4516 5.3233 10.7021 5.57379 10.7021 5.88284C10.7021 7.51783 12.0324 8.84797 13.6673 8.84797C15.2726 8.84797 16.5841 7.56581 16.6312 5.9717C16.6322 5.91575 16.6325 5.88444 16.6325 5.88081C16.6336 5.57249 16.8838 5.3233 17.192 5.3233H17.193C17.5016 5.32388 17.7515 5.57423 17.7515 5.88284C17.7515 5.90937 17.7513 5.93575 17.7508 5.96214C17.7414 6.63141 17.6188 11.1411 16.0203 13.4853C15.9161 13.6381 15.743 13.7296 15.558 13.7296Z" fill="white"/>
<path d="M17.1931 5.3233C17.1928 5.3233 17.1925 5.3233 17.1921 5.3233C16.884 5.3233 16.6337 5.57249 16.6325 5.88067C16.6325 5.88444 16.6324 5.91575 16.6312 5.9717C16.5841 7.56567 15.2727 8.84797 13.6674 8.84797C12.0324 8.84797 10.7023 7.51783 10.7023 5.88284C10.7023 5.57379 10.4516 5.3233 10.1427 5.3233H9.50012V13.7295H15.5581C15.7432 13.7295 15.9161 13.638 16.0204 13.4852C17.619 11.1409 17.7416 6.63126 17.7509 5.96199C17.7514 5.93575 17.7517 5.90923 17.7517 5.88284C17.7516 5.57423 17.5017 5.32388 17.1931 5.3233Z" fill="white"/>
<path d="M9.49994 3.41406C8.50306 3.41406 7.69202 4.22511 7.69202 5.22198C7.69202 6.21886 8.50306 7.02976 9.49994 7.02976C10.4968 7.02976 11.3079 6.21886 11.3079 5.22198C11.3079 4.22511 10.4968 3.41406 9.49994 3.41406Z" fill="white"/>
<path d="M9.50012 3.41406V7.02991C10.497 7.02976 11.3079 6.21886 11.3079 5.22198C11.3079 4.22511 10.4969 3.41421 9.50012 3.41406Z" fill="white"/>
<path d="M1.80792 4.80927C0.811043 4.80927 0 5.62031 0 6.61719C0 7.61407 0.811043 8.42511 1.80792 8.42511C2.8048 8.42511 3.6157 7.61407 3.6157 6.61719C3.6157 5.62031 2.8048 4.80927 1.80792 4.80927Z" fill="white"/>
<path d="M17.1921 4.80927C16.1952 4.80927 15.3843 5.62031 15.3843 6.61719C15.3843 7.61392 16.1952 8.42497 17.1921 8.42497C18.1889 8.42497 19 7.61392 19 6.61719C19 5.62031 18.1889 4.80927 17.1921 4.80927Z" fill="white"/>
<path d="M15.5581 15.5652H3.44186C3.13281 15.5652 2.88232 15.3147 2.88232 15.0057V13.337H16.1176V15.0057C16.1176 15.3147 15.8671 15.5652 15.5581 15.5652Z" fill="white"/>
<path d="M9.50012 15.5652H15.5581C15.8671 15.5652 16.1176 15.3147 16.1176 15.0057V13.337H9.50012V15.5652Z" fill="white"/>
</g>
<defs>
<clipPath id="clip0_31_228">
<rect width="19" height="19" fill="white"/>
</clipPath>
</defs>
</svg>
