<svg width="15" height="17" viewBox="0 0 15 17" fill="none" xmlns="http://www.w3.org/2000/svg">
<path fill-rule="evenodd" clip-rule="evenodd" d="M7.12377 4.41189C7.12377 5.90962 5.90962 7.12377 4.41189 7.12377C2.91415 7.12377 1.7 5.90962 1.7 4.41189C1.7 2.91415 2.91415 1.7 4.41189 1.7C5.90962 1.7 7.12377 2.91415 7.12377 4.41189ZM8.73638 5.29002C8.32924 7.30593 6.54782 8.82377 4.41189 8.82377C1.97527 8.82377 0 6.8485 0 4.41189C0 1.97527 1.97527 0 4.41189 0C6.54781 0 8.32922 1.51783 8.73637 3.53372C8.76495 3.53093 8.79393 3.52949 8.82325 3.52949H13.2351C13.7225 3.52949 14.1175 3.92455 14.1175 4.41187C14.1175 4.89919 13.7225 5.29425 13.2351 5.29425H8.82325C8.79394 5.29425 8.76496 5.29281 8.73638 5.29002Z" fill="white"/>
<path fill-rule="evenodd" clip-rule="evenodd" d="M7.87696 12.3533C7.87696 10.8555 9.09112 9.6414 10.5888 9.6414C12.0866 9.6414 13.3007 10.8555 13.3007 12.3533C13.3007 13.851 12.0866 15.0652 10.5888 15.0652C9.09111 15.0652 7.87696 13.851 7.87696 12.3533ZM6.26436 11.4752C6.67149 9.45924 8.45291 7.9414 10.5888 7.9414C13.0255 7.9414 15.0007 9.91667 15.0007 12.3533C15.0007 14.7899 13.0255 16.7652 10.5888 16.7652C8.45293 16.7652 6.67151 15.2473 6.26436 13.2314C6.23576 13.2342 6.20676 13.2357 6.17743 13.2357L1.76555 13.2357C1.27822 13.2357 0.883169 12.8406 0.883169 12.3533C0.883169 11.866 1.27822 11.4709 1.76555 11.4709L6.17743 11.4709C6.20676 11.4709 6.23576 11.4724 6.26436 11.4752Z" fill="white"/>
</svg>
