<svg width="17" height="15" viewBox="0 0 17 15" fill="none" xmlns="http://www.w3.org/2000/svg">
<path d="M15.6514 1.426C14.7714 0.506449 13.5639 0 12.251 0C11.2697 0 10.371 0.298896 9.57988 0.888316C9.18066 1.18584 8.81893 1.54984 8.5 1.97469C8.1812 1.54996 7.81934 1.18584 7.41999 0.888316C6.62895 0.298896 5.73026 0 4.74895 0C3.43613 0 2.2285 0.506449 1.34849 1.426C0.478981 2.33481 0 3.57638 0 4.92216C0 6.3073 0.535789 7.57524 1.6861 8.91252C2.71513 10.1087 4.1941 11.3231 5.90678 12.7292C6.4916 13.2094 7.1545 13.7537 7.84281 14.3335C8.02465 14.487 8.25798 14.5714 8.5 14.5714C8.74189 14.5714 8.97535 14.487 9.15693 14.3338C9.84525 13.7538 10.5085 13.2093 11.0936 12.7288C12.806 11.3229 14.285 10.1087 15.314 8.9124C16.4643 7.57524 17 6.3073 17 4.92204C17 3.57638 16.521 2.33481 15.6514 1.426Z" fill="white"/>
</svg>
