<svg width="17" height="20" viewBox="0 0 17 20" fill="none" xmlns="http://www.w3.org/2000/svg">
<path d="M4.44628 9.60648C4.73477 11.5436 6.20138 13.0516 8.05229 13.3142L8.16881 13.3308C8.46786 13.3732 8.771 13.3732 9.07005 13.3308L9.17099 13.3164C11.0306 13.0525 12.5032 11.536 12.7901 9.58938C13.0406 7.89059 13.0404 6.16016 12.79 4.46137C12.5031 2.51572 11.0328 0.997126 9.17469 0.7295L9.0768 0.715401C8.77331 0.671689 8.46555 0.671689 8.16206 0.715401L8.04859 0.731745C6.19911 0.998125 4.73482 2.50813 4.44648 4.44426C4.19182 6.15417 4.19162 7.89656 4.44628 9.60648Z" fill="white"/>
<path d="M2.29135 9.14629C2.29135 8.70635 1.95161 8.34971 1.53252 8.34971C1.11342 8.34971 0.773682 8.70635 0.773682 9.14629C0.773682 13.4236 3.88157 16.9389 7.85615 17.3395V18.7052C7.85615 19.1451 8.19589 19.5018 8.61499 19.5018C9.03408 19.5018 9.37382 19.1451 9.37382 18.7052V17.3395C13.3484 16.9389 16.4563 13.4236 16.4563 9.14629C16.4563 8.70635 16.1166 8.34971 15.6975 8.34971C15.2784 8.34971 14.9386 8.70635 14.9386 9.14629C14.9386 12.8124 12.1074 15.7844 8.61499 15.7844C5.12254 15.7844 2.29135 12.8124 2.29135 9.14629Z" fill="white"/>
</svg>
