<svg width="139" height="35" viewBox="0 0 139 35" fill="none" xmlns="http://www.w3.org/2000/svg">
<rect x="0.75" y="14.875" width="2.625" height="6.125" fill="white"/>
<rect x="6.875" y="14.875" width="2.625" height="6.125" fill="white"/>
<rect x="13" y="14.875" width="2.625" height="6.125" fill="white"/>
<rect x="19.125" y="12.25" width="2.625" height="10.5" fill="white"/>
<rect x="25.25" y="9.625" width="2.625" height="16.625" fill="white"/>
<rect x="31.375" y="3.5" width="2.625" height="28" fill="white"/>
<rect x="37.5" y="7.875" width="2.625" height="19.25" fill="white"/>
<rect x="43.625" width="2.625" height="35" fill="white"/>
<rect x="49.75" y="8.75" width="2.625" height="17.5" fill="white"/>
<rect x="55.875" y="14" width="2.625" height="7.875" fill="white"/>
<rect x="62" y="9.625" width="2.625" height="16.625" fill="white"/>
<rect x="68.125" y="12.25" width="2.625" height="10.5" fill="white"/>
<rect x="74.25" y="14.875" width="2.625" height="6.125" fill="white"/>
<rect x="80.375" y="15.75" width="2.625" height="3.5" fill="white" fill-opacity="0.6"/>
<rect x="86.5" y="9.625" width="2.625" height="16.625" fill="white" fill-opacity="0.6"/>
<rect x="92.625" y="4.375" width="2.625" height="27.125" fill="white" fill-opacity="0.6"/>
<rect x="98.75" y="8.75" width="2.625" height="18.375" fill="white" fill-opacity="0.6"/>
<rect x="104.875" y="0.875" width="2.625" height="33.25" fill="white" fill-opacity="0.6"/>
<rect x="111" y="8.75" width="2.625" height="17.5" fill="white" fill-opacity="0.6"/>
<rect x="117.125" y="12.25" width="2.625" height="10.5" fill="white" fill-opacity="0.6"/>
<rect x="123.25" y="14.875" width="2.625" height="5.25" fill="white" fill-opacity="0.6"/>
<rect x="129.375" y="14.875" width="2.625" height="6.125" fill="white" fill-opacity="0.6"/>
<rect x="135.5" y="14.875" width="2.625" height="6.125" fill="white" fill-opacity="0.6"/>
</svg>
