<svg width="23" height="16" viewBox="0 0 23 16" fill="none" xmlns="http://www.w3.org/2000/svg">
<path d="M7.60272 2.40062C7.46396 2.54361 7.27474 2.62409 7.07731 2.62409H6.37389C5.48809 2.62409 4.60858 2.77565 3.77212 3.07244C2.17409 3.63945 1.01117 5.05442 0.744749 6.75596L0.737587 6.80171C0.603747 7.6565 0.603747 8.52749 0.737587 9.38228L0.744749 9.42802C1.01117 11.1296 2.17409 12.5445 3.77212 13.1115C4.60858 13.4083 5.48809 13.5599 6.37389 13.5599H7.07731C7.27474 13.5599 7.46396 13.6404 7.60272 13.7834L8.11889 14.3152C10.1077 16.3646 13.5337 15.3952 14.1989 12.5949C14.9018 9.63562 14.9018 6.54836 14.1989 3.58906C13.5337 0.788748 10.1077 -0.180624 8.11889 1.86874L7.60272 2.40062Z" fill="white"/>
<path d="M18.8328 1.78305C19.1329 1.41701 19.6676 1.36798 20.0271 1.67354C21.617 3.02485 22.5929 5.44324 22.5929 8.09201C22.5929 10.7408 21.617 13.1592 20.0271 14.5105C19.6676 14.816 19.1329 14.767 18.8328 14.401C18.5327 14.0349 18.5808 13.4905 18.9403 13.1849C20.0539 12.2385 20.897 10.3621 20.897 8.09201C20.897 5.82188 20.0539 3.94556 18.9403 2.9991C18.5808 2.69354 18.5327 2.1491 18.8328 1.78305Z" fill="white"/>
<path d="M17.6934 5.07176C17.304 4.80695 16.7775 4.91373 16.5174 5.31026C16.2573 5.70679 16.3622 6.2429 16.7516 6.5077C17.1721 6.79362 17.5052 7.37153 17.5052 8.09201C17.5052 8.81248 17.1721 9.39039 16.7516 9.67631C16.3622 9.94111 16.2573 10.4772 16.5174 10.8737C16.7775 11.2703 17.304 11.3771 17.6934 11.1123C18.6247 10.4791 19.2011 9.33909 19.2011 8.09201C19.2011 6.84492 18.6247 5.70495 17.6934 5.07176Z" fill="white"/>
</svg>
